<svg width="38" height="44" viewBox="0 0 38 44" fill="none" xmlns="http://www.w3.org/2000/svg">
<path id="Icon" d="M34 19V11.6C34 8.23969 34 6.55953 33.346 5.27606C32.7708 4.14708 31.8529 3.2292 30.7239 2.65396C29.4405 2 27.7603 2 24.4 2H11.6C8.23969 2 6.55953 2 5.27606 2.65396C4.14708 3.2292 3.2292 4.14708 2.65396 5.27606C2 6.55953 2 8.23969 2 11.6V32.4C2 35.7603 2 37.4405 2.65396 38.7239C3.2292 39.8529 4.14708 40.7708 5.27606 41.346C6.55953 42 8.23969 42 11.6 42H18M22 20H10M14 28H10M26 12H10M30 40V28M24 34H36" stroke="#423366" stroke-width="3.5" stroke-linecap="round" stroke-linejoin="round"/>
</svg>
